<svg xmlns="http://www.w3.org/2000/svg" viewBox="0 0 100 100">
<style>
path { stroke:#112; stroke-width:0.2; }
</style>
<mask id="clip1">
	<rect x="0" y="0" width="100" height="100" fill="#fff"/>
	<circle cx="50" cy="50" r="23" fill="#000"/>
</mask>
<circle cx="50" cy="50" r="31.2" fill="#112" mask="url(#clip1)"/>
<circle cx="50" cy="50" r="31" fill="#888" mask="url(#clip1)"/>
<circle cx="50" cy="50" r="23.2" fill="#112" mask="url(#clip1)"/>

<path fill="#112" d="M50,0 v50 l15,-15 l-3.7,8.15 l-3.8,-0.65 z"/>
<path fill="#112" d="M50,100 v-50 l-15,15 l3.7,-8.15 l3.8,0.65 z"/>
<path fill="#112" d="M0,50 h50 l-15,-15 l8.15,3.7 l-0.65,3.8 z"/>
<path fill="#112" d="M100,50 h-50 l15,15 l-8.15,-3.7 l0.65,-3.8 z"/>

<path fill="#fc8" d="M50,0 v50 l-15,-15 l3.7,8.15 l3.8,-0.65 z"/>
<path fill="#fc8" d="M50,100 v-50 l15,15 l-3.7,-8.15 l-3.8,0.65 z"/>
<path fill="#fc8" d="M0,50 h50 l-15,15 l8.15,-3.7 l-0.65,-3.8 z"/>
<path fill="#fc8" d="M100,50 h-50 l15,-15 l-8.15,3.7 l0.65,3.8 z"/>
</svg>